PathFileType	4	(X/Y/Z)	c:\Git\powerlifing_model_clean\simulations\HC835B\Session1\HC835B_OGR_0006\marker_experimental.trc
DataRate	CameraRate	NumFrames	NumMarkers	Units	OrigDataRate	OrigDataStartFrame	OrigNumFrames
240.000000	240.000000	4	38	mm	240.000000	0	220
Frame#	Time	RPSI			LPSI			RASI			LASI			RTH1			RTH2			RTH3			RTH4			RSK1			RSK2			RSK3			RSK4			RCAL1			RCAL2			RCAL3			RST			RPT			RTN			RFMB			RSMB			RVMB			RFMH			RSMH			RVMH			RPM			LTH1			LTH2			LTH3			LTH4			LSK1			LSK2			LSK3			LSK4			LCAL1			LCAL2			LCAL3			LFMH			LVMH			
		X1	Y1	Z1	X2	Y2	Z2	X3	Y3	Z3	X4	Y4	Z4	X5	Y5	Z5	X6	Y6	Z6	X7	Y7	Z7	X8	Y8	Z8	X9	Y9	Z9	X10	Y10	Z10	X11	Y11	Z11	X12	Y12	Z12	X13	Y13	Z13	X14	Y14	Z14	X15	Y15	Z15	X16	Y16	Z16	X17	Y17	Z17	X18	Y18	Z18	X19	Y19	Z19	X20	Y20	Z20	X21	Y21	Z21	X22	Y22	Z22	X23	Y23	Z23	X24	Y24	Z24	X25	Y25	Z25	X26	Y26	Z26	X27	Y27	Z27	X28	Y28	Z28	X29	Y29	Z29	X30	Y30	Z30	X31	Y31	Z31	X32	Y32	Z32	X33	Y33	Z33	X34	Y34	Z34	X35	Y35	Z35	X36	Y36	Z36	X37	Y37	Z37	X38	Y38	Z38	

1	0	444.1519165039064	1224.373413085938	74.89528656005861	331.1000671386719	1222.036010742188	71.61642456054689	508.6528320312501	1151.847900390625	-111.0359268188477	279.2368774414063	1133.376953125	-116.2472305297852	574.8129882812501	868.3674926757815	-103.9818649291992	552.7151489257814	875.604919433594	-160.7310943603516	558.7523193359376	798.067565917969	-148.68798828125	528.1581420898439	803.229431152344	-198.5370788574219	499.4350891113282	354.2333984375001	-153.1654205322266	503.7911376953126	347.6227416992188	-214.4695892333985	492.0611877441407	300.7794799804688	-176.5375213623047	484.2503662109376	296.1766357421876	-235.8989715576172	420.1549377441407	145.7684936523438	-145.1973114013672	379.3472290039063	120.875228881836	-161.6022491455078	440.7633666992189	102.2417144775391	-153.9228210449219	379.8592529296876	148.3110961914063	-227.4019470214844	472.2684326171876	113.0168991088867	-209.0386505126954	401.5061340332032	169.4481964111328	-277.8362731933594	403.707000732422	154.9949035644532	-311.7362365722657	456.8110656738282	165.1488647460938	-314.8439941406251	478.8205871582032	90.9560012817383	-256.1993103027344	396.0797119140626	133.2017822265625	-369.0512695312501	454.1587524414064	134.5772094726563	-377.5224304199219	498.862518310547	87.40118408203126	-333.8544921875001	448.3538208007814	140.3255004882813	-432.3534240722657	217.0306701660157	875.1525878906252	77.26000213623048	226.4425354003907	841.9433593750002	27.06046104431153	227.9439697265626	791.2553710937502	90.36956024169923	250.2935485839844	760.5626831054689	43.10811614990235	276.6633300781251	508.5107727050782	439.0778808593751	268.7850952148438	459.4547424316407	420.4741516113282	278.3668823242188	461.5243225097657	469.3646850585939	287.3411254882813	410.1946105957032	445.0174560546876	348.6412353515626	424.466033935547	591.5548706054689	329.8948059082032	409.8493957519532	633.2780151367189	386.6397399902345	410.1669311523439	617.0578613281251	384.7114868164064	205.0167846679688	538.8798217773439	294.5085144042969	221.6070709228516	603.1455688476564	
2	0.004166666666666667	444.4143066406251	1222.488159179688	61.79754638671876	331.2947998046876	1220.711181640625	58.51155853271486	508.7281799316407	1149.682373046875	-123.927963256836	278.8799743652344	1133.081787109375	-129.645980834961	575.2736816406251	865.3614501953127	-114.7615432739258	552.9843139648439	871.970886230469	-171.4348297119141	558.8436889648439	794.5850219726565	-158.5245056152344	528.0661621093751	799.1385498046877	-208.3148956298829	499.0781250000001	350.8598327636719	-168.8429565429688	503.2741088867189	345.3952941894532	-230.2569274902344	491.6871032714845	297.8423156738282	-193.1393737792969	483.5645446777345	294.3414916992188	-252.5781402587891	419.7827758789064	142.2957763671875	-164.525146484375	378.7337036132813	117.9304122924805	-181.2010345458985	440.1492004394532	98.81204986572268	-174.0481872558594	379.1472167968751	146.4436798095703	-246.5066986083985	471.4058532714845	110.3522491455078	-229.1479797363282	400.8636779785157	168.054428100586	-296.9813537597657	402.6250305175782	154.5035095214844	-330.8375854492188	455.8883056640626	164.4796447753907	-333.8405456542969	477.516815185547	89.01781463623048	-276.7416381835938	394.5711059570314	133.6649017333985	-388.3695068359376	452.636932373047	134.9181823730469	-397.1696777343751	497.3055419921876	86.79198455810548	-354.5363769531251	446.5739746093751	141.88916015625	-451.7755737304689	216.7973022460938	872.891540527344	61.92688751220705	226.7613677978516	839.9261474609377	11.43396377563477	227.7848510742188	788.782165527344	74.44540405273439	250.5110473632813	758.3464355468751	27.17270278930665	276.6229553222657	513.1519775390626	426.5749816894532	268.3733215332032	463.7145080566407	409.3462219238282	278.2014770507813	466.9187927246095	458.0741271972657	286.7489318847657	415.0336303710939	435.2622070312501	348.5255737304688	432.7357177734376	581.3004760742189	330.0381164550782	418.8902282714845	623.4083251953126	386.6556396484376	418.9139099121095	606.8452148437501	384.3168945312501	212.4046478271485	532.6147460937501	294.4378051757813	230.1977844238282	597.0347900390626	
3	0.008333333333333333	444.742401123047	1220.227661132813	48.83624649047853	331.5539245605469	1219.127197265625	45.48312759399415	508.6842041015626	1147.327270507813	-136.8185577392578	278.4721679687501	1132.500854492188	-143.0149993896485	575.7447509765626	862.4361572265627	-125.5524063110352	553.3599853515626	868.523376464844	-182.2759094238282	559.0657348632814	791.2185058593752	-168.5220489501953	528.3467407226564	795.3593750000002	-218.3902893066407	498.5547180175782	347.5821533203126	-184.0640716552735	502.7342834472657	343.1267089843751	-245.5738677978516	491.2029724121095	295.0170593261719	-209.1577758789063	483.0435485839845	292.4359436035157	-268.6402282714844	419.6697387695314	138.9757232666016	-182.965576171875	378.4028625488282	114.9318008422852	-199.7153320312501	439.7907714843751	95.54453277587892	-193.3757019042969	378.5327453613282	144.4669036865235	-264.5669555664063	470.6918029785157	107.7972717285157	-248.4931945800782	400.0860900878907	166.5789031982422	-314.8712768554688	401.3838500976564	153.7359466552735	-348.9646911621094	454.5776367187501	163.5150451660157	-352.2593688964844	476.4200744628907	87.09801483154298	-296.4256286621094	392.7635803222657	133.895751953125	-406.6764221191407	450.7877807617189	135.0707702636719	-415.9176635742189	495.7220458984376	86.15573120117189	-374.3354187011719	444.4239501953126	143.2524719238282	-470.2774047851564	216.7718505859376	870.0906982421877	46.59828186035157	226.7987823486329	837.7388305664065	-4.084120273590089	227.5748138427735	786.1350097656252	58.46822357177736	250.3965606689454	756.1204223632814	10.99176597595215	276.6247863769532	517.7199707031251	413.6560974121095	267.9960021972657	467.8554687500001	397.8125000000001	278.0744018554688	472.3121337890626	446.3032226562501	286.1440734863282	419.8335266113282	424.884002685547	348.4560852050782	440.9710083007814	570.5178833007814	330.2138671875001	427.9523925781251	612.9769287109376	386.7324218750001	427.6455383300782	596.1126098632814	383.8699645996094	219.7450408935547	525.9799194335939	294.2712402343751	238.8838195800782	590.5904541015626	
4	0.0125	445.1467285156251	1217.693359375	35.9673080444336	331.9077148437501	1217.262939453125	32.50169372558594	508.6181945800782	1144.806884765625	-149.6974639892578	278.0928344726563	1131.6396484375	-156.1080169677735	576.0963134765626	859.5861816406252	-136.4429779052735	553.8781738281251	865.2163696289065	-193.2498931884766	559.2598876953126	788.067810058594	-178.7435913085938	528.7348022460939	791.8757324218752	-228.7744293212891	497.7429199218751	344.4487304687501	-198.7427215576172	502.2495422363282	340.8170776367188	-260.2650451660157	490.5603027343751	292.2127075195313	-224.5582122802735	482.5857849121095	290.4298706054688	-284.1018676757813	419.7986450195314	135.7522735595703	-200.5475311279297	378.1278991699219	111.9864730834961	-217.2398529052735	439.0556030273439	92.19134521484376	-212.0199279785157	378.1298522949219	142.3897094726563	-281.6604003906251	470.3590393066407	105.6690673828125	-266.8268737792969	399.2812805175782	164.9742126464844	-332.0420227050782	400.1343078613282	152.8382110595703	-366.0951232910157	453.0765991210939	162.5249938964844	-369.8206787109376	475.4891662597657	85.37911987304689	-315.2277526855469	390.7368164062501	133.765380859375	-423.9431152343751	448.8455810546876	135.1610412597657	-433.7698059082032	493.9986877441407	85.38558959960939	-393.3529663085939	441.8854370117189	144.2807312011719	-487.8151855468751	216.2510833740235	867.3726196289065	31.26066780090333	226.6693725585938	835.430114746094	-19.59206199645996	227.1540985107422	783.0866699218752	42.4243392944336	250.1703796386719	753.5598754882814	-5.21425485610962	276.5604858398438	522.0953979492189	400.2552795410157	267.6536254882813	471.9022827148439	385.7893066406251	278.1122131347657	477.6942443847657	434.1760253906251	285.4320678710938	424.5659179687501	414.1067810058595	348.3761291503907	449.1889648437501	559.2050170898439	330.3489074707032	437.0639038085939	602.0423583984376	386.7999267578126	436.3662719726564	584.8749389648439	383.2331542968751	227.0888671875001	518.9613037109376	293.9383850097657	247.5144805908204	583.6622924804689	
